<svg xmlns="http://www.w3.org/2000/svg" viewBox="0 0 32 32" fill="#000000" id="Church--Streamline-Phosphor" height="32" width="32"><desc>Church Streamline Icon: https://streamlinehq.com</desc><path d="m30.5359375 20.2307 -5.2440875 -3.1461625v-2.8267625c0.00375 -0.418675 -0.218125 -0.8069625 -0.5807375 -1.0163l-7.5496375 -4.3032875V6.1274125h2.3229625c0.8941125 -0.00005 1.4529375 -0.967975 1.00585 -1.742275 -0.2074875 -0.3593375 -0.5909 -0.5806875 -1.00585 -0.5806875h-2.3229625V1.481475c0 -0.8941 -0.9679 -1.452925 -1.7422125 -1.0058625 -0.3593625 0.207475 -0.58075 0.5909125 -0.58075 1.0058625v2.3229625h-2.3229625c-0.8941 -0.0000375 -1.4529125 0.9678375 -1.0058875 1.7421875 0.2074625 0.3593875 0.5909125 0.580775 1.0058875 0.580775h2.3229625v2.8107875l-7.549625 4.31055c-0.3626125 0.2093375 -0.5844875 0.597625 -0.5807375 1.0163v2.82675l-5.2440875 3.1389125c-0.349625 0.21005 -0.56345 0.5881 -0.563325 0.9959625v9.29185c0 0.641475 0.5200125 1.1614875 1.1614875 1.1614875h11.6148125c0.6414625 0 1.1614875 -0.5200125 1.1614875 -1.1614875V23.549625c0 -0.8941 0.9679 -1.452925 1.7422125 -1.0058625 0.3593625 0.207475 0.58075 0.5909125 0.58075 1.0058625v6.9688875c0 0.641475 0.5200125 1.1614875 1.161475 1.1614875h11.6148125c0.641475 0 1.1614875 -0.5200125 1.1614875 -1.1614875v-9.29185c0.000125 -0.4078625 -0.2137 -0.7859125 -0.563325 -0.9959625ZM3.2237 21.88435l3.48445 -2.0906625v9.56335H3.2237ZM16 20.0651875c-1.9244 0 -3.48445 1.5600375 -3.48445 3.4844375v5.8074125H9.0311125V14.9314375L16 10.9490125l6.9688875 3.982425v14.4256h-3.4844375V23.549625c0 -1.9244 -1.56005 -3.4844375 -3.48445 -3.4844375Zm12.7763 9.29185h-3.48445v-9.56335l3.48445 2.0906625Z" stroke-width="0.125"></path></svg>